<svg xmlns="http://www.w3.org/2000/svg" xmlns:xlink="http://www.w3.org/1999/xlink" width="500" zoomAndPan="magnify" viewBox="0 0 375 374.999991" height="500" preserveAspectRatio="xMidYMid meet" version="1.0"><defs><clipPath id="c842690640"><path d="M 369.925781 0 L 375 0 L 375 375 L 369.925781 375 Z M 369.925781 0 " clip-rule="nonzero"/></clipPath></defs><path fill="#0896b5" d="M 120.246094 228.46875 L 177.734375 257.21875 L 177.734375 187.960938 C 177.734375 184.042969 175.5625 180.449219 172.089844 178.628906 L 114.417969 148.425781 L 114.417969 219.046875 C 114.417969 223.035156 116.675781 226.683594 120.246094 228.46875 " fill-opacity="1" fill-rule="nonzero"/><path fill="#c3c2c1" d="M 93.3125 215 L 93.3125 143.738281 C 93.3125 139.816406 91.140625 136.222656 87.667969 134.402344 L 29.996094 104.199219 L 29.996094 176.828125 C 29.996094 180.820312 32.253906 184.46875 35.824219 186.253906 Z M 93.3125 215 " fill-opacity="1" fill-rule="nonzero"/><path fill="#c3c2c1" d="M 114.421875 246.660156 L 114.421875 317.921875 C 114.421875 321.84375 116.597656 325.4375 120.070312 327.261719 L 177.738281 357.464844 L 177.738281 284.832031 C 177.738281 280.84375 175.484375 277.195312 171.914062 275.410156 Z M 114.421875 246.660156 " fill-opacity="1" fill-rule="nonzero"/><path fill="#c3c2c1" d="M 87.488281 233.195312 L 29.996094 204.449219 L 29.996094 273.699219 C 29.996094 277.625 32.171875 281.214844 35.640625 283.035156 L 93.3125 313.242188 L 93.3125 242.621094 C 93.3125 238.628906 91.058594 234.980469 87.488281 233.195312 " fill-opacity="1" fill-rule="nonzero"/><path fill="#d41a5f" d="M 256.292969 228.488281 L 198.839844 257.214844 L 198.839844 188.007812 C 198.839844 184.058594 201.03125 180.441406 204.523438 178.609375 L 262.15625 148.417969 L 262.15625 219 C 262.15625 223.019531 259.886719 226.691406 256.292969 228.488281 " fill-opacity="1" fill-rule="nonzero"/><path fill="#c3c2c1" d="M 283.265625 215 L 283.265625 143.78125 C 283.265625 139.835938 285.457031 136.214844 288.949219 134.382812 L 346.582031 104.199219 L 346.582031 176.789062 C 346.582031 180.804688 344.3125 184.476562 340.71875 186.277344 Z M 283.265625 215 " fill-opacity="1" fill-rule="nonzero"/><path fill="#c3c2c1" d="M 262.160156 246.660156 L 262.160156 317.882812 C 262.160156 321.828125 259.96875 325.449219 256.476562 327.277344 L 198.84375 357.464844 L 198.84375 284.875 C 198.84375 280.855469 201.113281 277.183594 204.707031 275.386719 Z M 262.160156 246.660156 " fill-opacity="1" fill-rule="nonzero"/><path fill="#c3c2c1" d="M 289.125 233.171875 L 346.582031 204.449219 L 346.582031 273.65625 C 346.582031 277.601562 344.390625 281.222656 340.894531 283.050781 L 283.265625 313.238281 L 283.265625 242.660156 C 283.265625 238.644531 285.535156 234.972656 289.125 233.171875 " fill-opacity="1" fill-rule="nonzero"/><path fill="#c3c2c1" d="M 209.269531 85.894531 L 268.140625 117.308594 C 271.046875 118.855469 274.53125 118.855469 277.429688 117.308594 L 336.335938 85.886719 L 277.445312 54.484375 C 274.546875 52.933594 271.070312 52.933594 268.164062 54.484375 Z M 209.269531 85.894531 " fill-opacity="1" fill-rule="nonzero"/><path fill="#c3c2c1" d="M 192.945312 72.222656 L 251.835938 40.816406 L 192.945312 9.40625 C 190.039062 7.859375 186.5625 7.859375 183.65625 9.40625 L 124.78125 40.808594 L 183.65625 72.222656 C 186.5625 73.769531 190.039062 73.769531 192.945312 72.222656 " fill-opacity="1" fill-rule="nonzero"/><path fill="#c3c2c1" d="M 40.261719 85.328125 L 98.859375 117.261719 C 101.742188 118.835938 105.226562 118.867188 108.144531 117.347656 L 167.324219 86.453125 L 108.71875 54.523438 C 105.835938 52.953125 102.351562 52.921875 99.4375 54.441406 Z M 40.261719 85.328125 " fill-opacity="1" fill-rule="nonzero"/><path fill="#f18904" d="M 183.65625 99.550781 L 124.765625 130.953125 L 183.65625 162.363281 C 186.5625 163.910156 190.039062 163.910156 192.945312 162.363281 L 251.824219 130.964844 L 192.945312 99.550781 C 190.039062 98 186.5625 98 183.65625 99.550781 " fill-opacity="1" fill-rule="nonzero"/><g clip-path="url(#c842690640)"><path fill="#ffffff" d="M 369.925781 -67.894531 L 521.832031 -67.894531 L 521.832031 437.660156 L 369.925781 437.660156 Z M 369.925781 -67.894531 " fill-opacity="1" fill-rule="nonzero"/></g></svg>